<?xml version="1.0" standalone="no"?>
<!DOCTYPE svg PUBLIC "-//W3C//DTD SVG 20010904//EN"
 "http://www.w3.org/TR/2001/REC-SVG-20010904/DTD/svg10.dtd">
<svg version="1.0" xmlns="http://www.w3.org/2000/svg"
 width="601.000000pt" height="601.000000pt" viewBox="0 0 601.000000 601.000000"
 preserveAspectRatio="xMidYMid meet">
<metadata>
Created by potrace 1.14, written by Peter Selinger 2001-2017
</metadata>
<g transform="translate(0.000000,601.000000) scale(0.100000,-0.100000)"
fill="#000000" stroke="none">
<path d="M2926 5137 c-34 -19 -48 -40 -102 -147 -57 -113 -452 -911 -794
-1605 -73 -148 -135 -272 -137 -274 -1 -2 -222 -4 -491 -4 -534 1 -529 1 -575
-58 -54 -72 -40 -153 39 -226 51 -46 304 -286 397 -375 33 -32 93 -89 133
-127 l73 -69 -126 -253 c-69 -140 -202 -409 -296 -599 -152 -306 -172 -351
-172 -395 0 -121 134 -189 234 -119 19 14 105 178 306 582 154 309 282 562
285 562 3 0 41 -35 86 -78 44 -42 154 -147 244 -232 156 -148 264 -250 389
-370 32 -30 122 -116 201 -190 78 -74 178 -170 223 -212 57 -54 92 -79 119
-86 70 -18 140 15 174 80 12 23 14 176 14 946 l0 919 605 0 605 0 0 -916 c0
-852 1 -918 18 -951 40 -81 148 -107 219 -53 66 51 63 0 63 1006 l0 914 167
-1 c189 -1 223 7 264 65 31 44 33 125 3 165 -48 65 -61 69 -232 71 -86 1 -167
2 -179 2 l-23 1 -2 974 c-3 967 -3 975 -24 1002 -36 49 -70 68 -122 68 -60 0
-108 -27 -133 -76 -18 -36 -19 -73 -19 -1003 0 -765 -3 -965 -12 -966 -7 0
-278 -1 -603 -1 l-590 -1 -5 979 -5 979 -27 36 c-46 59 -125 74 -192 36z m-80
-2025 c-6 -5 -605 -7 -610 -1 -3 3 164 346 527 1079 l82 165 3 -619 c1 -341 0
-621 -2 -624z m-1113 -318 c-3 -16 -111 -236 -121 -246 -4 -4 -33 16 -64 45
-95 87 -218 207 -218 211 0 2 91 3 203 2 142 -1 201 -4 200 -12z m1115 -714
l2 -724 -52 50 c-29 29 -69 67 -89 85 -20 19 -103 98 -185 176 -82 77 -172
163 -200 190 -28 26 -116 109 -194 183 -78 74 -176 167 -217 206 l-75 71 120
245 120 245 383 -1 384 -1 3 -725z"/>
</g>
</svg>
